# xmcd
#
# Track frame offsets: 
#        150
#        14850
#        31392
#        51192
#        75290
#        90452
#        121635
#        133312
#        160915
#        174697
#        193392
#        224042
#        238917
#
# Disc length: 3373 seconds
#
# Revision: 2
# Processed by: cddbd v1.5.2PL0 Copyright (c) Steve Scherf et al.
# Submitted via: ExactAudioCopyFreeDBPlugin 1.0
#
DISCID=bb0d2b0d
DTITLE=Blues Flowers - Nie będę grzecznym chłopcem
DYEAR=1997
DGENRE=Blues
TTITLE0=Robię to co robię
TTITLE1=Bieda nie ma Boga
TTITLE2=It's only game
TTITLE3=Piję sobie piwo
TTITLE4=Zła kobieta
TTITLE5=Życie jakby do mnie wraca
TTITLE6=Wystrychnięty
TTITLE7=Blues dla kloszarda
TTITLE8=Proszę księdza
TTITLE9=Nie będę grzecznym chłopcem
TTITLE10=Be off with you baby
TTITLE11=Zbójnicki goes blues
TTITLE12=Put out of tone
EXTD=YEAR: 1997
EXTT0=
EXTT1=
EXTT2=
EXTT3=
EXTT4=
EXTT5=
EXTT6=
EXTT7=
EXTT8=
EXTT9=
EXTT10=
EXTT11=
EXTT12=
PLAYORDER=
